<svg width="20" height="20" fill="none" xmlns="http://www.w3.org/2000/svg"><path fill-rule="evenodd" clip-rule="evenodd" d="M.177086 1.03109C-.0587882.795211-.0587881.412781.177087.176905c.235874-.2358755.618303-.2358756.854173 0L10.0001 9.14577 18.9689.17691c.2359-.2358753.6183-.2358753.8542.000001.2359.235875.2359.618306 0 .854179l-8.9688 8.96887 8.9689 8.96894c.2359.2359.2359.6183 0 .8542s-.6183.2359-.8542 0l-8.9689-8.969-8.96892 8.969c-.235877.2359-.618306.2359-.854181 0-.2358743-.2359-.2358745-.6183 0-.8542L9.14592 9.99996.177086 1.03109Z" fill="#fff"/></svg>