<svg width="105" height="10" xmlns="http://www.w3.org/2000/svg"><path d="M2.56641 6.30859 4.28906.660156h1.51172L3.25781 7.9668c-.05859.15625-.13476.32617-.22851.50976-.09375.1836-.2168.35742-.36914.52149-.14844.16797-.33399.30273-.55664.40429-.22266.10547-.49219.15821-.8086.15821-.125 0-.24609-.01172-.363279-.03516-.113282-.01953-.220703-.04101-.322266-.06445L.603516 8.38281c.039062.00391.085937.00781.140625.01172.058593.00391.105468.00586.140625.00586.234374 0 .429684-.0293.585934-.08789.15625-.05469.28321-.14453.38086-.26953.10156-.125.1875-.29297.25782-.50391l.45703-1.23047ZM1.59375.660156 3.09961 5.40625l.25195 1.48828-.97851.25195L.0703125.660156H1.59375ZM10.377 5.28906 12.2637.660156h1.2246L10.8574 7h-.96092L7.27148.660156h1.22461L10.377 5.28906ZM8.13281.660156V7H6.7207V.660156h1.41211ZM12.6211 7V.660156h1.418V7h-1.418Zm7.3301-3.69141v1.11329h-3.2813V3.30859h3.2813ZM17.0801.660156V7H15.668V.660156h1.4121Zm3.8906 0V7h-1.4121V.660156h1.4121Zm2.5547 2.015624h1.8691c.5469 0 1.0117.0918 1.3946.27539.3828.1836.6738.43945.873.76758.2031.32422.3047.69531.3047 1.11328 0 .30859-.0566.5957-.1699.86133-.1133.26172-.2813.49023-.5039.68555-.2188.19531-.4883.34765-.8086.45703C26.168 6.94531 25.8047 7 25.3945 7h-2.8066V.660156h1.418V5.88086h1.3886c.2813 0 .5059-.04883.6739-.14648.1679-.09766.289-.22461.3632-.38086.0782-.15625.1172-.32227.1172-.49805 0-.17969-.039-.34961-.1172-.50977-.0742-.16015-.1953-.29101-.3632-.39258-.168-.10156-.3926-.15234-.6739-.15234h-1.8691v-1.125ZM30.4629.660156V7h-1.4121V.660156h1.4121Zm4.4648 6.457034c-.4687 0-.8925-.07617-1.2715-.22852-.375-.15625-.6953-.37305-.9609-.65039-.2617-.27734-.4629-.60351-.6035-.97851-.1406-.375-.2109-.7793-.2109-1.21289V3.8125c0-.49609.0722-.94531.2168-1.34766.1445-.40234.3457-.74609.6035-1.03125.2578-.28906.5625-.509762.914-.662106.3516-.152343.7325-.228515 1.1426-.228515.4531 0 .8496.076172 1.1895.228515.3398.152344.6211.367186.8437.644536.2266.27343.3945.5996.5039.97851.1133.37891.1699.79688.1699 1.25391v.60351h-4.8984V3.23828h3.5039v-.11133c-.0078-.2539-.0586-.49218-.1523-.71484-.0899-.22266-.2285-.40234-.416-.53906-.1875-.13672-.4375-.20508-.75-.20508-.2344 0-.4434.05078-.627.15234-.1797.09766-.3301.24024-.4512.42774-.1211.1875-.2148.41406-.2812.67968-.0625.26172-.0938.55665-.0938.88477v.23438c0 .27734.0371.53515.1114.77343.0781.23438.1914.43946.3398.61524s.3281.31445.5391.41601c.2109.09766.4511.14649.7207.14649.3398 0 .6425-.06836.9082-.20508.2656-.13672.4961-.33008.6914-.58008l.7441.7207c-.1367.19922-.3144.39063-.5332.57422-.2187.17969-.4863.32617-.8027.43946-.3125.11328-.6758.16992-1.0899.16992ZM44.4961.660156V7h-1.418V.660156h1.418Zm2.0801 0V1.77344h-5.543V.660156h5.543Zm3.3047 6.457034c-.4688 0-.8926-.07617-1.2715-.22852-.375-.15625-.6953-.37305-.961-.65039-.2617-.27734-.4629-.60351-.6035-.97851-.1406-.375-.2109-.7793-.2109-1.21289V3.8125c0-.49609.0722-.94531.2168-1.34766.1445-.40234.3457-.74609.6035-1.03125.2578-.28906.5625-.509762.9141-.662106.3515-.152343.7324-.228515 1.1425-.228515.4532 0 .8496.076172 1.1895.228515.3398.152344.6211.367186.8437.644536.2266.27343.3946.5996.5039.97851.1133.37891.17.79688.17 1.25391v.60351h-4.8985V3.23828h3.5039v-.11133c-.0078-.2539-.0586-.49218-.1523-.71484-.0899-.22266-.2285-.40234-.416-.53906-.1875-.13672-.4375-.20508-.75-.20508-.2344 0-.4434.05078-.627.15234-.1797.09766-.3301.24024-.4511.42774-.1211.1875-.2149.41406-.2813.67968-.0625.26172-.0937.55665-.0937.88477v.23438c0 .27734.0371.53515.1113.77343.0781.23438.1914.43946.3398.61524.1485.17578.3281.31445.5391.41601.2109.09766.4512.14649.7207.14649.3398 0 .6426-.06836.9082-.20508.2656-.13672.4961-.33008.6914-.58008l.7441.7207c-.1367.19922-.3144.39063-.5332.57422-.2187.17969-.4863.32617-.8027.43946-.3125.11328-.6758.16992-1.0898.16992ZM54.5977.660156l1.207 2.103514L57.0352.660156h1.5527L56.666 3.77148 58.6641 7h-1.5528l-1.289-2.19141L54.5332 7h-1.5586l1.9922-3.22852-1.916-3.111324h1.5469Zm9.2871 2.648434v1.11329h-3.2813V3.30859h3.2813ZM61.0137.660156V7h-1.4121V.660156h1.4121Zm3.8906 0V7h-1.4121V.660156h1.4121Zm1.2363 3.240234v-.13477c0-.45703.0664-.88085.1992-1.27148.1329-.39453.3243-.73633.5743-1.02539.2539-.29297.5625-.519531.9257-.679688C68.207.625 68.6211.542969 69.082.542969c.4649 0 .8789.082031 1.2422.246093.3672.160157.6778.386718.9317.679688.2539.28906.4472.63086.58 1.02539.1329.39063.1993.81445.1993 1.27148v.13477c0 .45703-.0664.88086-.1993 1.27149-.1328.39062-.3261.73242-.58 1.02539-.2539.28906-.5625.51562-.9258.67968-.3633.16016-.7754.24024-1.2363.24024-.4649 0-.8809-.08008-1.2481-.24024-.3633-.16406-.6719-.39062-.9258-.67968-.2539-.29297-.4472-.63477-.5801-1.02539-.1328-.39063-.1992-.81446-.1992-1.27149Zm1.4121-.13477v.13477c0 .28516.0293.55469.0879.80859.0586.25391.1504.47657.2754.66797.125.19141.2852.3418.4805.45117.1953.10938.4277.16407.6973.16407.2617 0 .4882-.05469.6796-.16407.1954-.10937.3555-.25976.4805-.45117.125-.1914.2168-.41406.2754-.66797.0625-.2539.0937-.52343.0937-.80859v-.13477c0-.28124-.0312-.54687-.0937-.79687-.0586-.25391-.1523-.47852-.2813-.67383-.125-.19531-.2851-.34765-.4804-.45703-.1914-.11328-.4199-.16992-.6856-.16992-.2656 0-.4961.05664-.6914.16992-.1914.10938-.3496.26172-.4746.45703-.125.19531-.2168.41992-.2754.67383-.0586.25-.0879.51563-.0879.79687ZM77.3848.660156V1.78516H74.291V.660156h3.0938Zm1.1074 0V7h-1.4121V.660156h1.4121Zm-4.5469 0h1.3945l-.1699 3.134764c-.0234.46485-.0703.875-.1406 1.23047-.0664.35156-.1563.6543-.2695.9082-.1133.25-.252.45313-.416.60938-.1641.15625-.3555.27148-.5743.3457-.2187.07422-.4648.11133-.7383.11133h-.4394l-.0059-1.16016.2227-.01757c.1445-.01172.2695-.04883.375-.11133.1055-.06641.1953-.16016.2695-.28125.0781-.1211.1407-.27735.1875-.46875.0508-.19141.0899-.41797.1172-.67969.0313-.26172.0547-.56641.0703-.91406l.1172-2.707034Zm5.7774 3.240234v-.13477c0-.45703.0664-.88085.1992-1.27148.1328-.39453.3242-.73633.5742-1.02539.2539-.29297.5625-.519531.9258-.679688.3672-.164062.7812-.246093 1.2422-.246093.4648 0 .8789.082031 1.2421.246093.3672.160157.6778.386718.9317.679688.2539.28906.4473.63086.5801 1.02539.1328.39063.1992.81445.1992 1.27148v.13477c0 .45703-.0664.88086-.1992 1.27149-.1328.39062-.3262.73242-.5801 1.02539-.2539.28906-.5625.51562-.9258.67968-.3633.16016-.7754.24024-1.2363.24024-.4649 0-.8809-.08008-1.2481-.24024-.3632-.16406-.6718-.39062-.9257-.67968-.254-.29297-.4473-.63477-.5801-1.02539-.1328-.39063-.1992-.81446-.1992-1.27149Zm1.4121-.13477v.13477c0 .28516.0293.55469.0879.80859.0585.25391.1503.47657.2753.66797.125.19141.2852.3418.4805.45117.1953.10938.4277.16407.6973.16407.2617 0 .4883-.05469.6797-.16407.1953-.10937.3554-.25976.4804-.45117.125-.1914.2168-.41406.2754-.66797.0625-.2539.0938-.52343.0938-.80859v-.13477c0-.28124-.0313-.54687-.0938-.79687-.0586-.25391-.1523-.47852-.2812-.67383-.125-.19531-.2852-.34765-.4805-.45703-.1914-.11328-.4199-.16992-.6855-.16992-.2657 0-.4961.05664-.6914.16992-.1915.10938-.3497.26172-.4747.45703-.125.19531-.2168.41992-.2753.67383-.0586.25-.0879.51563-.0879.79687ZM91.0195.660156V1.78516h-2.7656V7h-1.4121V.660156h4.1777ZM93.2988 4.9375 95.7891.660156h1.4121V7h-1.4121V2.7168L93.2988 7h-1.4121V.660156h1.4121V4.9375Zm6.8552 0 2.491-4.277344h1.412V7h-1.412V2.7168L100.154 7h-1.4118V.660156h1.4118V4.9375Z"/></svg>
