<svg width="133" height="20" xmlns="http://www.w3.org/2000/svg"><path d="M8.95996 14.3247c0-.3174-.02848-.6063-.08545-.8667-.05696-.2604-.17903-.5005-.36621-.7202-.17904-.2197-.44352-.4395-.79346-.6592-.34179-.2197-.78938-.4476-1.34277-.6836-.65918-.2767-1.29801-.5696-1.9165-.8789-.61849-.3174-1.17595-.68358-1.67237-1.09862-.49642-.41504-.89111-.90332-1.18408-1.46484-.28483-.56966-.42724-1.23698-.42724-2.00196 0-.74869.13427-1.42822.40283-2.03857.27669-.61035.66731-1.13119 1.17187-1.5625.50456-.43945 1.09457-.77718 1.77002-1.01318.6836-.23601 1.4445-.354008 2.28272-.354008 1.13932 0 2.12402.235998 2.9541.708008.83818.472 1.48518 1.11898 1.94088 1.94092.4639.82194.6958 1.76595.6958 2.83203H8.82568c0-.50456-.07324-.94808-.21972-1.33057-.13835-.39062-.36214-.6958-.67139-.91552-.30924-.21973-.70801-.32959-1.19629-.32959-.45573 0-.83415.09358-1.13525.28076-.29297.17903-.5127.42724-.65918.74463-.13835.30924-.20752.65918-.20752 1.0498 0 .29297.06917.55746.20752.79346.14648.22786.34586.43538.59814.62256.25228.17903.54932.354.89112.5249.34993.1709.73242.33773 1.14746.50049.80566.31738 1.51774.66731 2.13623 1.0498.6185.37435 1.1353.7975 1.5503 1.2695.415.4639.7283.9888.9399 1.5747.2116.586.3174 1.2533.3174 2.002 0 .7406-.1302 1.416-.3906 2.0264-.2523.6022-.6226 1.123-1.1109 1.5625-.4882.4313-1.07824.7649-1.76997 1.0009-.68359.236-1.44857.354-2.29492.354-.82194 0-1.59912-.1139-2.33155-.3418-.73242-.236-1.37939-.59-1.94091-1.062-.55339-.4801-.98877-1.0864-1.30616-1.8188-.31738-.7406-.47607-1.6154-.47607-2.6245h3.57666c0 .5371.0529.9969.15869 1.3794.1058.3743.26856.6754.48828.9033.21973.2197.48828.3865.80567.5005.32552.1058.6958.1587 1.11084.1587.472 0 .84635-.0896 1.12304-.2686.28483-.179.48829-.4191.61036-.7202.12207-.3011.1831-.6429.1831-1.0254Zm9.25294-5.79833V19h-3.4302V5.79199h3.2227l.2075 2.73438Zm-.4883 3.41793-.9399.0245c-.0163-.9278.0651-1.7823.2441-2.56353.179-.78125.4476-1.46077.8057-2.03857.3662-.5778.826-1.02539 1.3794-1.34277.5534-.31739 1.2003-.47608 1.9409-.47608.4801 0 .9237.08952 1.3306.26856.4069.17089.7609.44352 1.062.81787.3011.36621.533.84635.6958 1.44043.1627.58593.2441 1.28987.2441 2.11179V19h-3.418v-8.3984c0-.586-.0569-1.03357-.1709-1.34281-.1139-.31738-.2767-.53711-.4882-.65918-.2116-.13021-.472-.19531-.7813-.19531-.3255 0-.6103.08952-.8545.26855-.2441.17904-.4435.43132-.5981.75684-.1465.31738-.2604.69171-.3418 1.12301-.0733.4313-.1099.8952-.1099 1.3916Zm6.4331-.3418-1.2329.1587c-.0163-.8707.061-1.6805.2319-2.42917.1709-.75683.4354-1.41601.7935-1.97754.3581-.56966.8057-1.01318 1.3428-1.33056.5452-.31739 1.1759-.47608 1.8921-.47608.5371 0 1.0253.08952 1.4648.26856.4395.17903.8138.46793 1.123.8667.3174.39062.5575.90738.7203 1.55029.1709.6429.2563 1.42415.2563 2.3437V19h-3.4302v-8.4106c0-.59412-.0569-1.04985-.1709-1.36723-.1139-.31738-.2767-.53304-.4882-.64697-.2116-.11394-.4639-.1709-.7569-.1709-.2929 0-.5493.08138-.769.24414-.2116.16276-.3906.39062-.5371.68359-.1465.28483-.2564.62256-.3296 1.01317-.0733.3825-.1099.8016-.1099 1.2573Zm14.9902 4.3579V9.85693c0-.39876-.0488-.71614-.1464-.95214-.0896-.23601-.2279-.40691-.4151-.5127-.179-.11393-.3987-.1709-.6592-.1709-.2929 0-.5371.06104-.7324.18311-.1953.12207-.3418.29703-.4394.5249-.0895.22786-.1343.50049-.1343.81787h-3.4302c0-.56966.1099-1.10677.3296-1.61133.2197-.51269.5412-.96028.9644-1.34277.4313-.39063.944-.6958 1.538-.91553.5941-.21973 1.2614-.32959 2.002-.32959.8789 0 1.6602.15055 2.3438.45166.6835.29297 1.2247.76091 1.6235 1.40381.3988.6429.5981 1.47705.5981 2.50244v5.88384c0 .7405.0367 1.3427.1099 1.8066.0814.4639.1994.8626.354 1.1963V19h-3.4424c-.1546-.3662-.2726-.8219-.354-1.3672-.0732-.5534-.1099-1.1108-.1099-1.6724Zm.4151-5.0292.0122 2.0507h-1.2573c-.3255 0-.6104.0529-.8545.1587-.236.1058-.4354.2564-.5982.4517-.1627.1872-.2848.4069-.3662.6592-.0732.2522-.1098.5208-.1098.8056 0 .3174.0447.586.1342.8057.0896.2197.2238.3865.4029.5005.179.1139.3906.1709.6347.1709.3744 0 .6999-.0773.9766-.232.2767-.1546.4801-.3418.6103-.5615.1384-.2197.1832-.4232.1343-.6103l.7813 1.3305c-.0977.3011-.232.6145-.4029.94-.1627.3255-.3702.6266-.6225.9033-.2523.2767-.5656.5046-.94.6836-.3662.1709-.8016.2563-1.3061.2563-.708 0-1.355-.1627-1.9409-.4882-.586-.3256-1.0498-.7813-1.3916-1.3672-.3337-.586-.5005-1.2818-.5005-2.0874 0-.6673.1058-1.2696.3174-1.8067.2197-.5452.5452-1.005.9765-1.3794.4313-.3825.9766-.6754 1.6358-.8789.6592-.2034 1.4323-.3051 2.3193-.3051h1.355Zm8.9722-2.19731V19h-3.418V5.79199h3.2226l.1954 2.9419Zm3.1127-3.03955-.0488 3.40576c-.1546-.03255-.3418-.05697-.5615-.07324-.2116-.01628-.3988-.02442-.5615-.02442-.3825 0-.708.06104-.9766.18311-.2685.11393-.4923.2889-.6714.5249-.1709.22786-.3011.51265-.3906.85445-.0895.3418-.1424.7284-.1587 1.1597l-.647-.2441c0-.8627.0651-1.65205.1953-2.3682.1384-.72428.3418-1.35091.6104-1.87988.2686-.53711.59-.95215.9644-1.24512.3824-.29296.8138-.43945 1.2939-.43945.1628 0 .3337.01628.5127.04883.1872.02441.3337.05697.4394.09766Zm8.1177.09765v2.57569h-6.7383V5.79199h6.7383Zm-5.188-3.25928h3.4058V14.9717c0 .3662.0366.647.1099.8423.0732.1953.1831.3336.3296.415.1546.0732.358.1099.6103.1099.1709 0 .3296-.0082.4761-.0244.1465-.0245.2563-.0489.3296-.0733v2.6734c-.2686.1057-.5534.1871-.8545.2441-.293.057-.6429.0854-1.0498.0854-.6836 0-1.2777-.1302-1.7823-.3906-.4964-.2604-.8829-.6754-1.1596-1.2451-.2767-.5778-.4151-1.3346-.4151-2.2705V2.53271ZM72.2412 19H69.104l.0244-2.9541h3.1128c.8626 0 1.534-.1546 2.0142-.4639.4801-.3092.8178-.7975 1.0132-1.4648.2034-.6673.3051-1.5422.3051-2.6245V8.72168c0-.82194-.0529-1.51774-.1587-2.0874-.1058-.5778-.2848-1.04167-.5371-1.3916-.2522-.35808-.59-.62256-1.0132-.79346-.4231-.1709-.948-.25635-1.5747-.25635h-3.247V1.22656h3.247c1.0254 0 1.9572.16683 2.7954.50049.8383.33366 1.5585.82194 2.1607 1.46484.6022.63477 1.0661 1.42009 1.3916 2.35596.3255.93587.4883 2.00195.4883 3.19824v2.74661c0 1.2044-.1628 2.2705-.4883 3.1982-.3255.9278-.7894 1.7131-1.3916 2.356-.5941.6347-1.3143 1.119-2.1607 1.4526-.8463.3337-1.7944.5005-2.8442.5005Zm-1.062-17.77344V19h-3.5767V1.22656h3.5767ZM86.8896 19.2441c-.9033 0-1.7049-.1383-2.4047-.415-.6918-.2767-1.2777-.6755-1.7578-1.1963-.4802-.529-.8464-1.1678-1.0987-1.9165-.2523-.7487-.3784-1.6032-.3784-2.5635v-1.0864c0-1.0742.1221-2.0142.3662-2.81982.2442-.8138.59-1.49739 1.0376-2.05078.4476-.55338.9969-.96435 1.648-1.23291.6591-.27669 1.4038-.41504 2.2338-.41504.8301 0 1.5585.13835 2.1851.41504.6348.26856 1.1597.67546 1.5747 1.2207.415.53711.7284 1.20443.94 2.00196.2115.79752.3173 1.72525.3173 2.78325v1.5624h-8.8501v-2.4047h5.4932v-.3052c0-.5371-.057-.98471-.1709-1.34278-.1139-.36622-.293-.63884-.5371-.81788-.2441-.17903-.5697-.26855-.9766-.26855-.3418 0-.6307.06917-.8667.20752-.236.13835-.4231.354-.5615.64697-.1383.29297-.2401.67546-.3052 1.14742-.0651.4639-.0976 1.0214-.0976 1.6724v1.0864c0 .6104.0529 1.1231.1587 1.5381.1058.4069.2604.7406.4638 1.001.2116.2523.468.4354.7691.5493.3011.1058.651.1587 1.0498.1587.6022 0 1.1434-.1058 1.6235-.3174.4883-.2197.9033-.5167 1.2451-.8911l1.3672 2.0752c-.236.3092-.5615.6185-.9765.9277-.4151.3093-.9115.5616-1.4893.7569-.5778.1953-1.2451.2929-2.002.2929Zm10.3638-2.8808 2.124-10.57131h3.5646L99.3164 19h-2.1362l.0732-2.6367ZM95.9961 5.79199l2.1606 10.58351L98.1934 19h-2.1485L92.4194 5.79199h3.5767Zm12.1829 0V19h-3.43V5.79199h3.43Zm-3.589-3.41797c0-.52897.167-.96435.5-1.30615.342-.349934.798-.524901 1.368-.524901.577 0 1.033.174967 1.367.524901.333.3418.5.77718.5 1.30615 0 .52084-.171.95622-.513 1.30616-.333.34179-.781.51269-1.342.51269-.578 0-1.038-.1709-1.38-.51269-.333-.34994-.5-.78532-.5-1.30616Zm11.072 14.02588c.317 0 .59-.0651.817-.1953.236-.1302.416-.3418.538-.6348.122-.2929.187-.6714.195-1.1352h3.21c0 .9928-.211 1.8514-.634 2.5757-.415.7161-.977 1.2695-1.685 1.6601-.7.3825-1.493.5737-2.38.5737-.887 0-1.661-.1424-2.32-.4272-.659-.2848-1.204-.6999-1.635-1.2451-.424-.5453-.745-1.2085-.965-1.9898-.211-.7894-.317-1.6927-.317-2.7099v-.9644c0-1.001.106-1.8961.317-2.68553.22-.78939.541-1.45671.965-2.00196.431-.54524.972-.96028 1.623-1.24511.659-.28483 1.432-.42725 2.319-.42725.953 0 1.779.19938 2.478.59815.7.39062 1.246.96842 1.636 1.73339.399.76498.598 1.70899.598 2.83201h-3.21c-.008-.5045-.069-.92364-.183-1.2573-.106-.3418-.273-.60221-.501-.78125-.219-.18717-.512-.28076-.879-.28076-.382 0-.691.08138-.927.24414-.228.15462-.403.38249-.525.68359-.114.29297-.191.65918-.232 1.09868-.041.4394-.061.9358-.061 1.4892v.9644c0 .594.016 1.1108.049 1.5503.04.4313.118.7975.232 1.0986.122.293.297.5127.524.6592.236.1465.554.2197.953.2197Zm12.048 2.8442c-.903 0-1.705-.1383-2.405-.415-.692-.2767-1.277-.6755-1.758-1.1963-.48-.529-.846-1.1678-1.098-1.9165-.253-.7487-.379-1.6032-.379-2.5635v-1.0864c0-1.0742.122-2.0142.367-2.81982.244-.8138.59-1.49739 1.037-2.05078.448-.55338.997-.96435 1.648-1.23291.659-.27669 1.404-.41504 2.234-.41504.83 0 1.558.13835 2.185.41504.635.26856 1.16.67546 1.575 1.2207.415.53711.728 1.20443.94 2.00196.211.79752.317 1.72525.317 2.78325v1.5624h-8.85v-2.4047h5.493v-.3052c0-.5371-.057-.98471-.171-1.34278-.114-.36622-.293-.63884-.537-.81788-.244-.17903-.57-.26855-.976-.26855-.342 0-.631.06917-.867.20752-.236.13835-.423.354-.562.64697-.138.29297-.24.67546-.305 1.14742-.065.4639-.098 1.0214-.098 1.6724v1.0864c0 .6104.053 1.1231.159 1.5381.106.4069.261.7406.464 1.001.212.2523.468.4354.769.5493.301.1058.651.1587 1.05.1587.602 0 1.143-.1058 1.623-.3174.489-.2197.904-.5167 1.246-.8911l1.367 2.0752c-.236.3092-.562.6185-.977.9277-.415.3093-.911.5616-1.489.7569-.578.1953-1.245.2929-2.002.2929Z"/></svg>
