<svg width="21" height="20" fill="none" xmlns="http://www.w3.org/2000/svg"><path d="M16.315 12.39c-.41-.427-.905-.655-1.43-.655-.519 0-1.018.224-1.445.65l-1.336 1.33c-.11-.06-.22-.114-.325-.17a5.407 5.407 0 0 1-.419-.223c-1.25-.793-2.388-1.828-3.479-3.166-.528-.667-.883-1.228-1.141-1.798.347-.316.668-.646.98-.962.12-.119.237-.24.356-.36.887-.886.887-2.034 0-2.92L6.922 2.963c-.131-.13-.267-.265-.393-.4-.254-.262-.52-.532-.795-.786-.41-.405-.9-.62-1.416-.62-.516 0-1.015.215-1.438.62l-.008.009-1.437 1.448a3.086 3.086 0 0 0-.918 1.962C.416 6.43.78 7.577 1.058 8.33c.685 1.844 1.708 3.554 3.234 5.386a19.89 19.89 0 0 0 6.624 5.18c.973.46 2.27 1.004 3.72 1.097.09.004.182.008.267.008.976 0 1.796-.35 2.439-1.047.004-.008.013-.012.017-.021.22-.266.473-.506.74-.764.181-.173.367-.355.55-.544.418-.435.637-.942.637-1.461 0-.523-.224-1.026-.65-1.448l-2.321-2.326Zm1.513 4.444c-.004 0-.004.004 0 0-.165.177-.334.338-.516.515-.274.262-.553.536-.816.844-.426.456-.93.671-1.589.671-.063 0-.131 0-.194-.004-1.256-.08-2.423-.57-3.298-.988a18.775 18.775 0 0 1-6.24-4.88c-1.44-1.734-2.404-3.338-3.043-5.06-.393-1.051-.537-1.87-.473-2.643.042-.494.232-.903.583-1.253l1.442-1.44c.207-.194.427-.3.642-.3.266 0 .482.16.617.296l.013.013c.258.24.503.49.76.755.132.135.267.27.403.41l1.154 1.152c.448.448.448.861 0 1.309-.123.122-.241.244-.364.363-.355.363-.693.7-1.061 1.03-.008.008-.017.012-.021.02-.364.364-.296.718-.22.959l.013.038c.3.726.723 1.41 1.365 2.224l.004.005c1.167 1.435 2.397 2.554 3.754 3.41.173.11.351.199.52.283.152.076.296.148.419.224.017.008.034.021.05.03a.917.917 0 0 0 .419.105c.35 0 .57-.22.642-.291l1.446-1.444c.144-.143.372-.316.638-.316.263 0 .478.164.61.308a.34.34 0 0 0 .008.008l2.329 2.326c.435.43.435.874.004 1.321ZM11.31 4.757a5.363 5.363 0 0 1 2.916 1.512A5.378 5.378 0 0 1 15.74 9.18a.567.567 0 0 0 .562.473c.034 0 .063-.004.097-.008a.57.57 0 0 0 .47-.659 6.508 6.508 0 0 0-1.831-3.525 6.523 6.523 0 0 0-3.53-1.827.574.574 0 0 0-.66.464.564.564 0 0 0 .461.658ZM20.491 8.822a10.705 10.705 0 0 0-3.014-5.804 10.732 10.732 0 0 0-5.812-3.01.569.569 0 1 0-.186 1.124 9.61 9.61 0 0 1 5.195 2.688 9.559 9.559 0 0 1 2.693 5.188.567.567 0 0 0 .562.473.56.56 0 0 0 .562-.659Z" fill="#00B2FF"/></svg>