<svg width="32" height="32" viewBox="0 0 32 32" fill="none" xmlns="http://www.w3.org/2000/svg">
<path d="M19.7334 8.5332C20.4278 8.5332 21.0144 8.98066 21.2352 9.59985H26.7648C26.9856 8.98066 27.5723 8.5332 28.2667 8.5332C29.1488 8.5332 29.8667 9.25106 29.8667 10.1332C29.8667 11.0153 29.1488 11.7332 28.2667 11.7332C27.5723 11.7332 26.9856 11.2857 26.7648 10.6665H21.2347C21.0139 11.2857 20.4272 11.7332 19.7328 11.7332C18.8507 11.7332 18.1328 11.0153 18.1328 10.1332C18.1328 9.25106 18.8512 8.5332 19.7334 8.5332ZM28.2667 10.6665C28.5606 10.6665 28.8 10.4276 28.8 10.1332C28.8 9.83878 28.5606 9.59985 28.2667 9.59985C27.9728 9.59985 27.7334 9.83878 27.7334 10.1332C27.7334 10.4276 27.9728 10.6665 28.2667 10.6665ZM19.7334 10.6665C20.0272 10.6665 20.2667 10.4276 20.2667 10.1332C20.2667 9.83878 20.0272 9.59985 19.7334 9.59985C19.4395 9.59985 19.2 9.83878 19.2 10.1332C19.2 10.4276 19.4395 10.6665 19.7334 10.6665Z" fill="#00B2FF"/>
<path d="M15.4667 11.8313V8.5332C15.4667 8.39133 15.5227 8.25587 15.6229 8.15614L17.7563 6.02284C17.856 5.92257 17.992 5.86658 18.1333 5.86658H19.8315C20.0523 5.24739 20.6389 4.79993 21.3333 4.79993C22.2155 4.79993 22.9333 5.51778 22.9333 6.3999C22.9333 7.28202 22.2155 7.99987 21.3333 7.99987C20.6389 7.99987 20.0523 7.55241 19.8315 6.93322H18.3541L16.5333 8.75399V11.8313C17.1525 12.0521 17.6 12.6387 17.6 13.3331C17.6 14.2152 16.8821 14.9331 16 14.9331C15.1179 14.9331 14.4 14.2152 14.4 13.3331C14.4 12.6387 14.8475 12.0521 15.4667 11.8313ZM21.3333 6.93322C21.6272 6.93322 21.8667 6.6943 21.8667 6.3999C21.8667 6.1055 21.6272 5.86658 21.3333 5.86658C21.0395 5.86658 20.8 6.1055 20.8 6.3999C20.8 6.6943 21.0395 6.93322 21.3333 6.93322ZM16 13.8664C16.2939 13.8664 16.5333 13.6275 16.5333 13.3331C16.5333 13.0387 16.2939 12.7998 16 12.7998C15.7061 12.7998 15.4667 13.0387 15.4667 13.3331C15.4667 13.6275 15.7061 13.8664 16 13.8664Z" fill="#00B2FF"/>
<path d="M5.86668 13.8664C6.11308 13.8664 6.34348 13.9267 6.55202 14.027L7.46668 13.1123V7.99987C7.46668 7.858 7.52268 7.72254 7.62295 7.62281L12.9605 2.2853C12.8603 2.07677 12.8 1.84637 12.8 1.59997C12.8 0.717855 13.5179 0 14.4 0C15.2821 0 16 0.717855 16 1.59997C16 2.48209 15.2821 3.19995 14.4 3.19995C14.1536 3.19995 13.9232 3.13968 13.7147 3.03942L8.53335 8.22066V13.3331C8.53335 13.475 8.47735 13.6104 8.37708 13.7102L7.30615 14.7811C7.40642 14.9896 7.46668 15.22 7.46668 15.4664C7.46668 16.3485 6.74882 17.0664 5.86668 17.0664C4.98455 17.0664 4.26668 16.3485 4.26668 15.4664C4.26668 14.5843 4.98455 13.8664 5.86668 13.8664ZM14.4 2.1333C14.6939 2.1333 14.9333 1.89437 14.9333 1.59997C14.9333 1.30558 14.6939 1.06665 14.4 1.06665C14.1061 1.06665 13.8667 1.30558 13.8667 1.59997C13.8667 1.89437 14.1061 2.1333 14.4 2.1333ZM5.86668 15.9997C6.16055 15.9997 6.40002 15.7608 6.40002 15.4664C6.40002 15.172 6.16055 14.9331 5.86668 14.9331C5.57282 14.9331 5.33335 15.172 5.33335 15.4664C5.33335 15.7608 5.57282 15.9997 5.86668 15.9997Z" fill="#00B2FF"/>
<path d="M1.06668 7.56467V5.33324C1.06668 5.19138 1.12268 5.05592 1.22295 4.95618L4.95628 1.22291C5.05601 1.12265 5.19201 1.06665 5.33335 1.06665H8.09814C8.31894 0.447459 8.90561 0 9.60001 0C10.4821 0 11.2 0.717855 11.2 1.59997C11.2 2.48209 10.4821 3.19995 9.60001 3.19995C8.90561 3.19995 8.31894 2.75249 8.09814 2.1333H5.55415L2.13335 5.55404V7.56467C2.75255 7.78547 3.20001 8.37213 3.20001 9.06652C3.20001 9.94863 2.48215 10.6665 1.60001 10.6665C0.717879 10.6665 1.28746e-05 9.94863 1.28746e-05 9.06652C1.28746e-05 8.37213 0.44748 7.78547 1.06668 7.56467ZM9.60001 2.1333C9.89388 2.1333 10.1333 1.89437 10.1333 1.59997C10.1333 1.30558 9.89388 1.06665 9.60001 1.06665C9.30615 1.06665 9.06668 1.30558 9.06668 1.59997C9.06668 1.89437 9.30615 2.1333 9.60001 2.1333ZM1.60001 9.59984C1.89388 9.59984 2.13335 9.36091 2.13335 9.06652C2.13335 8.77212 1.89388 8.53319 1.60001 8.53319C1.30615 8.53319 1.06668 8.77212 1.06668 9.06652C1.06668 9.36091 1.30615 9.59984 1.60001 9.59984Z" fill="#00B2FF"/>
<path d="M8.53282 28.8982V21.2349C7.91415 21.0141 7.46668 20.4274 7.46668 19.733C7.46668 18.8509 8.18455 18.1331 9.06668 18.1331C9.76108 18.1331 10.3477 18.5805 10.5685 19.1997H16.0981C16.3189 18.5805 16.9056 18.1331 17.6 18.1331C18.2944 18.1331 18.8811 18.5805 19.1019 19.1997H22.1792L24.1605 17.2184C24.0603 17.0099 24 16.7795 24 16.5331C24 15.651 24.7179 14.9331 25.6 14.9331C26.4821 14.9331 27.2 15.651 27.2 16.5331C27.2 17.4152 26.4821 18.1331 25.6 18.1331C25.3536 18.1331 25.1232 18.0728 24.9147 17.9725L22.7771 20.1101C22.6773 20.2104 22.5413 20.2664 22.4 20.2664H19.1019C18.8811 20.8855 18.2944 21.333 17.6 21.333C16.9056 21.333 16.3189 20.8855 16.0981 20.2664H10.568C10.4069 20.7181 10.0512 21.0738 9.59948 21.2349V28.8982C10.2187 29.119 10.6661 29.7057 10.6661 30.4C10.6661 31.2822 9.94828 32 9.06615 32C8.18402 32 7.46615 31.2822 7.46615 30.4C7.46615 29.7057 7.91362 29.119 8.53282 28.8982ZM25.6 17.0664C25.8939 17.0664 26.1333 16.8275 26.1333 16.5331C26.1333 16.2387 25.8939 15.9998 25.6 15.9998C25.3061 15.9998 25.0667 16.2387 25.0667 16.5331C25.0667 16.8275 25.3061 17.0664 25.6 17.0664ZM17.6 20.2664C17.8939 20.2664 18.1333 20.0274 18.1333 19.733C18.1333 19.4386 17.8939 19.1997 17.6 19.1997C17.3061 19.1997 17.0667 19.4386 17.0667 19.733C17.0667 20.0274 17.3061 20.2664 17.6 20.2664ZM9.06668 30.9328C9.36055 30.9328 9.60002 30.6939 9.60002 30.3995C9.60002 30.1051 9.36055 29.8662 9.06668 29.8662C8.77282 29.8662 8.53335 30.1051 8.53335 30.3995C8.53335 30.6939 8.77282 30.9328 9.06668 30.9328ZM9.06668 20.2664C9.36055 20.2664 9.60002 20.0274 9.60002 19.733C9.60002 19.4386 9.36055 19.1997 9.06668 19.1997C8.77282 19.1997 8.53335 19.4386 8.53335 19.733C8.53335 20.0274 8.77282 20.2664 9.06668 20.2664Z" fill="#00B2FF"/>
<path d="M11.2 10.7646V9.06652C11.2 8.92465 11.256 8.78919 11.3563 8.68945L17.7605 2.2853C17.6603 2.07677 17.6 1.84637 17.6 1.59997C17.6 0.717855 18.3179 0 19.2 0C19.8944 0 20.4811 0.447459 20.7019 1.06665H22.9333C23.2277 1.06665 23.4667 1.30504 23.4667 1.59997V2.97915L25.448 4.96045C25.6565 4.86019 25.8869 4.79992 26.1333 4.79992C27.0155 4.79992 27.7333 5.51777 27.7333 6.39989C27.7333 7.28201 27.0155 7.99987 26.1333 7.99987C25.2512 7.99987 24.5333 7.28201 24.5333 6.39989C24.5333 6.1535 24.5936 5.9231 24.6939 5.71457L22.5563 3.57701C22.456 3.47728 22.4 3.34181 22.4 3.19995V2.1333H20.7019C20.4811 2.75249 19.8944 3.19995 19.2 3.19995C18.9536 3.19995 18.7232 3.13968 18.5147 3.03942L12.2667 9.28731V10.7646C12.8859 10.9854 13.3333 11.5721 13.3333 12.2665C13.3333 13.1486 12.6155 13.8664 11.7333 13.8664C10.8512 13.8664 10.1333 13.1486 10.1333 12.2665C10.1333 11.5721 10.5808 10.9854 11.2 10.7646ZM26.1333 6.93322C26.4272 6.93322 26.6667 6.69429 26.6667 6.39989C26.6667 6.1055 26.4272 5.86657 26.1333 5.86657C25.8395 5.86657 25.6 6.1055 25.6 6.39989C25.6 6.69429 25.8395 6.93322 26.1333 6.93322ZM19.2 2.1333C19.4939 2.1333 19.7333 1.89437 19.7333 1.59997C19.7333 1.30558 19.4939 1.06665 19.2 1.06665C18.9061 1.06665 18.6667 1.30558 18.6667 1.59997C18.6667 1.89437 18.9061 2.1333 19.2 2.1333ZM11.7333 12.7998C12.0272 12.7998 12.2667 12.5609 12.2667 12.2665C12.2667 11.9721 12.0272 11.7331 11.7333 11.7331C11.4395 11.7331 11.2 11.9721 11.2 12.2665C11.2 12.5609 11.4395 12.7998 11.7333 12.7998Z" fill="#00B2FF"/>
<path d="M12.8 14.9331C13.4944 14.9331 14.0811 15.3805 14.3019 15.9997H20.5792L23.6229 12.9561C23.7227 12.8558 23.8587 12.7998 24 12.7998H29.6459L30.9333 11.5123V7.15401L26.8187 3.03942C26.6101 3.13968 26.3797 3.19995 26.1333 3.19995C25.2512 3.19995 24.5333 2.48209 24.5333 1.59997C24.5333 0.717855 25.2512 0 26.1333 0C27.0155 0 27.7333 0.717855 27.7333 1.59997C27.7333 1.84637 27.6731 2.07677 27.5728 2.2853L31.8437 6.55616C31.944 6.65589 32 6.79135 32 6.93322V11.7331C32 11.875 31.944 12.0105 31.8437 12.1102L30.2437 13.7102C30.144 13.8104 30.008 13.8664 29.8667 13.8664H24.2208L21.1771 16.9101C21.0773 17.0104 20.9413 17.0664 20.8 17.0664H14.3019C14.0811 17.6856 13.4944 18.133 12.8 18.133C11.9179 18.133 11.2 17.4152 11.2 16.5331C11.2 15.6509 11.9179 14.9331 12.8 14.9331ZM26.1333 1.06665C25.8395 1.06665 25.6 1.30558 25.6 1.59997C25.6 1.89437 25.8395 2.1333 26.1333 2.1333C26.4272 2.1333 26.6667 1.89437 26.6667 1.59997C26.6667 1.30558 26.4272 1.06665 26.1333 1.06665ZM12.8 17.0664C13.0939 17.0664 13.3333 16.8275 13.3333 16.5331C13.3333 16.2387 13.0939 15.9997 12.8 15.9997C12.5061 15.9997 12.2667 16.2387 12.2667 16.5331C12.2667 16.8275 12.5061 17.0664 12.8 17.0664Z" fill="#00B2FF"/>
<path d="M1.60001 12.7998C1.84641 12.7998 2.07681 12.8601 2.28534 12.9603L4.26668 10.979V7.90174C3.64748 7.68095 3.20001 7.09429 3.20001 6.3999C3.20001 5.51778 3.91788 4.79993 4.80001 4.79993C5.68214 4.79993 6.40001 5.51778 6.40001 6.3999C6.40001 7.09429 5.95254 7.68095 5.33334 7.90174V11.1998C5.33334 11.3417 5.27734 11.4771 5.17708 11.5769L3.03948 13.7144C3.13974 13.923 3.20001 14.1534 3.20001 14.3998C3.20001 15.0942 2.75254 15.6808 2.13334 15.9016V16.3123L6.24374 20.4226C6.34401 20.5223 6.40001 20.6578 6.40001 20.7997V21.4311C7.01921 21.6519 7.46667 22.2386 7.46667 22.933C7.46667 23.6273 7.01921 24.214 6.40001 24.4348V25.6982C7.01921 25.919 7.46667 26.5057 7.46667 27.2001C7.46667 28.0822 6.74881 28.8001 5.86668 28.8001C4.98454 28.8001 4.26668 28.0822 4.26668 27.2001C4.26668 26.5057 4.71414 25.919 5.33334 25.6982V24.4348C4.71414 24.214 4.26668 23.6273 4.26668 22.933C4.26668 22.2386 4.71414 21.6519 5.33334 21.4311V21.0205L1.22294 16.9101C1.12268 16.8104 1.06668 16.6749 1.06668 16.5331V15.9016C0.447476 15.6808 9.41753e-06 15.0942 9.41753e-06 14.3998C9.41753e-06 13.5176 0.717876 12.7998 1.60001 12.7998ZM4.80001 6.93322C5.09388 6.93322 5.33334 6.6943 5.33334 6.3999C5.33334 6.10551 5.09388 5.86658 4.80001 5.86658C4.50614 5.86658 4.26668 6.10551 4.26668 6.3999C4.26668 6.6943 4.50614 6.93322 4.80001 6.93322ZM5.86668 27.7329C6.16054 27.7329 6.40001 27.494 6.40001 27.1996C6.40001 26.9052 6.16054 26.6662 5.86668 26.6662C5.57281 26.6662 5.33334 26.9052 5.33334 27.1996C5.33334 27.494 5.57281 27.7329 5.86668 27.7329ZM5.86668 23.4663C6.16054 23.4663 6.40001 23.2274 6.40001 22.933C6.40001 22.6386 6.16054 22.3996 5.86668 22.3996C5.57281 22.3996 5.33334 22.6386 5.33334 22.933C5.33334 23.2274 5.57281 23.4663 5.86668 23.4663ZM1.60001 14.9331C1.89388 14.9331 2.13334 14.6942 2.13334 14.3998C2.13334 14.1054 1.89388 13.8664 1.60001 13.8664C1.30614 13.8664 1.06668 14.1054 1.06668 14.3998C1.06668 14.6942 1.30614 14.9331 1.60001 14.9331Z" fill="#00B2FF"/>
</svg>
