<svg width="32" height="32" viewBox="0 0 32 32" fill="none" xmlns="http://www.w3.org/2000/svg"><path fill-rule="evenodd" clip-rule="evenodd" d="m1.14757 21.3484 6.14807-8.1967 1.68195.888 4.00211-6.42065 2.4939 2.93725.9281-.75145 3.596 4.50815 2.5521-3.0055 7.1339 10.0409-6.873-8.538-1.044 3.5859.957 2.8347-6.148-8.3674-.0666 2.855 3.4886 7.6298-6.5251-11.81684 1.8851 6.38664-2.639-6.21586-1.45 4.13256.2899-2.6982-3.62506 9.7335.43491-4.0983-1.50794-1.6392-5.71294 6.2157Z" fill="#011C40"/><path fill-rule="evenodd" clip-rule="evenodd" d="M31.7505 22.6304C22.0164 14.8655 6.8654 25.5406.744141 21.4238 7.47411 27.2576 23.2045 17.3958 31.7505 22.6304Z" fill="#011C40"/><path fill-rule="evenodd" clip-rule="evenodd" d="M32 23.241c-7.6373-4.8074-18.9961 1.8827-24.81765.3335C13.4906 26.5989 25.2345 19.8976 32 23.241Z" fill="#011C40"/></svg>