<svg width="32" height="32" viewBox="0 0 32 32" fill="none" xmlns="http://www.w3.org/2000/svg">
<path d="M19.7333 8.5332C20.4277 8.5332 21.0144 8.98066 21.2352 9.59985H26.7648C26.9856 8.98066 27.5723 8.5332 28.2667 8.5332C29.1488 8.5332 29.8667 9.25106 29.8667 10.1332C29.8667 11.0153 29.1488 11.7332 28.2667 11.7332C27.5723 11.7332 26.9856 11.2857 26.7648 10.6665H21.2347C21.0139 11.2857 20.4272 11.7332 19.7328 11.7332C18.8507 11.7332 18.1328 11.0153 18.1328 10.1332C18.1328 9.25106 18.8512 8.5332 19.7333 8.5332ZM28.2667 10.6665C28.5606 10.6665 28.8 10.4276 28.8 10.1332C28.8 9.83878 28.5606 9.59985 28.2667 9.59985C27.9728 9.59985 27.7334 9.83878 27.7334 10.1332C27.7334 10.4276 27.9728 10.6665 28.2667 10.6665ZM19.7333 10.6665C20.0272 10.6665 20.2667 10.4276 20.2667 10.1332C20.2667 9.83878 20.0272 9.59985 19.7333 9.59985C19.4395 9.59985 19.2 9.83878 19.2 10.1332C19.2 10.4276 19.4395 10.6665 19.7333 10.6665Z" fill="#00B2FF"/>
<path d="M15.4667 11.8313V8.5332C15.4667 8.39133 15.5227 8.25587 15.6229 8.15614L17.7563 6.02284C17.856 5.92258 17.992 5.86658 18.1333 5.86658H19.8315C20.0523 5.24739 20.6389 4.79993 21.3333 4.79993C22.2155 4.79993 22.9333 5.51778 22.9333 6.3999C22.9333 7.28202 22.2155 7.99987 21.3333 7.99987C20.6389 7.99987 20.0523 7.55241 19.8315 6.93322H18.3541L16.5333 8.75399V11.8313C17.1525 12.0521 17.6 12.6387 17.6 13.3331C17.6 14.2152 16.8821 14.9331 16 14.9331C15.1179 14.9331 14.4 14.2152 14.4 13.3331C14.4 12.6387 14.8475 12.0521 15.4667 11.8313ZM21.3333 6.93322C21.6272 6.93322 21.8667 6.6943 21.8667 6.3999C21.8667 6.10551 21.6272 5.86658 21.3333 5.86658C21.0395 5.86658 20.8 6.10551 20.8 6.3999C20.8 6.6943 21.0395 6.93322 21.3333 6.93322ZM16 13.8664C16.2939 13.8664 16.5333 13.6275 16.5333 13.3331C16.5333 13.0387 16.2939 12.7998 16 12.7998C15.7061 12.7998 15.4667 13.0387 15.4667 13.3331C15.4667 13.6275 15.7061 13.8664 16 13.8664Z" fill="#00B2FF"/>
<path d="M5.86668 13.8664C6.11308 13.8664 6.34348 13.9267 6.55201 14.027L7.46668 13.1123V7.99987C7.46668 7.858 7.52268 7.72254 7.62295 7.62281L12.9605 2.2853C12.8603 2.07677 12.8 1.84637 12.8 1.59997C12.8 0.717855 13.5179 0 14.4 0C15.2821 0 16 0.717855 16 1.59997C16 2.48209 15.2821 3.19995 14.4 3.19995C14.1536 3.19995 13.9232 3.13968 13.7147 3.03942L8.53335 8.22067V13.3331C8.53335 13.475 8.47735 13.6104 8.37708 13.7102L7.30615 14.7811C7.40642 14.9896 7.46668 15.22 7.46668 15.4664C7.46668 16.3485 6.74881 17.0664 5.86668 17.0664C4.98455 17.0664 4.26668 16.3485 4.26668 15.4664C4.26668 14.5843 4.98455 13.8664 5.86668 13.8664ZM14.4 2.1333C14.6939 2.1333 14.9333 1.89437 14.9333 1.59997C14.9333 1.30558 14.6939 1.06665 14.4 1.06665C14.1061 1.06665 13.8667 1.30558 13.8667 1.59997C13.8667 1.89437 14.1061 2.1333 14.4 2.1333ZM5.86668 15.9997C6.16055 15.9997 6.40001 15.7608 6.40001 15.4664C6.40001 15.172 6.16055 14.9331 5.86668 14.9331C5.57281 14.9331 5.33335 15.172 5.33335 15.4664C5.33335 15.7608 5.57281 15.9997 5.86668 15.9997Z" fill="#00B2FF"/>
<path d="M1.06667 7.56468V5.33325C1.06667 5.19138 1.12267 5.05592 1.22294 4.95619L4.95627 1.22291C5.056 1.12265 5.192 1.06665 5.33334 1.06665H8.09814C8.31894 0.447459 8.9056 0 9.6 0C10.4821 0 11.2 0.717855 11.2 1.59997C11.2 2.48209 10.4821 3.19995 9.6 3.19995C8.9056 3.19995 8.31894 2.75249 8.09814 2.1333H5.55414L2.13334 5.55404V7.56468C2.75254 7.78547 3.2 8.37213 3.2 9.06652C3.2 9.94864 2.48214 10.6665 1.6 10.6665C0.71787 10.6665 2.74181e-06 9.94864 2.74181e-06 9.06652C2.74181e-06 8.37213 0.447469 7.78547 1.06667 7.56468ZM9.6 2.1333C9.89387 2.1333 10.1333 1.89437 10.1333 1.59997C10.1333 1.30558 9.89387 1.06665 9.6 1.06665C9.30614 1.06665 9.06667 1.30558 9.06667 1.59997C9.06667 1.89437 9.30614 2.1333 9.6 2.1333ZM1.6 9.59984C1.89387 9.59984 2.13334 9.36091 2.13334 9.06652C2.13334 8.77212 1.89387 8.53319 1.6 8.53319C1.30614 8.53319 1.06667 8.77212 1.06667 9.06652C1.06667 9.36091 1.30614 9.59984 1.6 9.59984Z" fill="#00B2FF"/>
<path d="M8.53281 28.8982V21.2349C7.91414 21.0141 7.46668 20.4274 7.46668 19.733C7.46668 18.8509 8.18454 18.1331 9.06668 18.1331C9.76108 18.1331 10.3477 18.5805 10.5685 19.1997H16.0981C16.3189 18.5805 16.9056 18.1331 17.6 18.1331C18.2944 18.1331 18.8811 18.5805 19.1019 19.1997H22.1792L24.1605 17.2184C24.0603 17.0099 24 16.7795 24 16.5331C24 15.651 24.7179 14.9331 25.6 14.9331C26.4821 14.9331 27.2 15.651 27.2 16.5331C27.2 17.4152 26.4821 18.1331 25.6 18.1331C25.3536 18.1331 25.1232 18.0728 24.9147 17.9725L22.7771 20.1101C22.6773 20.2104 22.5413 20.2664 22.4 20.2664H19.1019C18.8811 20.8855 18.2944 21.333 17.6 21.333C16.9056 21.333 16.3189 20.8855 16.0981 20.2664H10.568C10.4069 20.7181 10.0512 21.0738 9.59948 21.2349V28.8982C10.2187 29.119 10.6661 29.7057 10.6661 30.4001C10.6661 31.2822 9.94828 32 9.06614 32C8.18401 32 7.46614 31.2822 7.46614 30.4001C7.46614 29.7057 7.91361 29.119 8.53281 28.8982ZM25.6 17.0664C25.8939 17.0664 26.1333 16.8275 26.1333 16.5331C26.1333 16.2387 25.8939 15.9998 25.6 15.9998C25.3061 15.9998 25.0667 16.2387 25.0667 16.5331C25.0667 16.8275 25.3061 17.0664 25.6 17.0664ZM17.6 20.2664C17.8939 20.2664 18.1333 20.0274 18.1333 19.733C18.1333 19.4386 17.8939 19.1997 17.6 19.1997C17.3061 19.1997 17.0667 19.4386 17.0667 19.733C17.0667 20.0274 17.3061 20.2664 17.6 20.2664ZM9.06668 30.9328C9.36054 30.9328 9.60001 30.6939 9.60001 30.3995C9.60001 30.1051 9.36054 29.8662 9.06668 29.8662C8.77281 29.8662 8.53334 30.1051 8.53334 30.3995C8.53334 30.6939 8.77281 30.9328 9.06668 30.9328ZM9.06668 20.2664C9.36054 20.2664 9.60001 20.0274 9.60001 19.733C9.60001 19.4386 9.36054 19.1997 9.06668 19.1997C8.77281 19.1997 8.53334 19.4386 8.53334 19.733C8.53334 20.0274 8.77281 20.2664 9.06668 20.2664Z" fill="#00B2FF"/>
<path d="M11.2 10.7646V9.06652C11.2 8.92465 11.256 8.78919 11.3563 8.68946L17.7605 2.2853C17.6603 2.07677 17.6 1.84637 17.6 1.59997C17.6 0.717855 18.3179 0 19.2 0C19.8944 0 20.4811 0.447459 20.7019 1.06665H22.9333C23.2277 1.06665 23.4667 1.30505 23.4667 1.59997V2.97915L25.448 4.96045C25.6565 4.86019 25.8869 4.79992 26.1333 4.79992C27.0155 4.79992 27.7333 5.51778 27.7333 6.3999C27.7333 7.28201 27.0155 7.99987 26.1333 7.99987C25.2512 7.99987 24.5333 7.28201 24.5333 6.3999C24.5333 6.1535 24.5936 5.9231 24.6939 5.71457L22.5563 3.57701C22.456 3.47728 22.4 3.34181 22.4 3.19995V2.1333H20.7019C20.4811 2.75249 19.8944 3.19995 19.2 3.19995C18.9536 3.19995 18.7232 3.13968 18.5147 3.03942L12.2667 9.28731V10.7646C12.8859 10.9854 13.3333 11.5721 13.3333 12.2665C13.3333 13.1486 12.6155 13.8664 11.7333 13.8664C10.8512 13.8664 10.1333 13.1486 10.1333 12.2665C10.1333 11.5721 10.5808 10.9854 11.2 10.7646ZM26.1333 6.93322C26.4272 6.93322 26.6667 6.69429 26.6667 6.3999C26.6667 6.1055 26.4272 5.86657 26.1333 5.86657C25.8395 5.86657 25.6 6.1055 25.6 6.3999C25.6 6.69429 25.8395 6.93322 26.1333 6.93322ZM19.2 2.1333C19.4939 2.1333 19.7333 1.89437 19.7333 1.59997C19.7333 1.30558 19.4939 1.06665 19.2 1.06665C18.9061 1.06665 18.6667 1.30558 18.6667 1.59997C18.6667 1.89437 18.9061 2.1333 19.2 2.1333ZM11.7333 12.7998C12.0272 12.7998 12.2667 12.5609 12.2667 12.2665C12.2667 11.9721 12.0272 11.7331 11.7333 11.7331C11.4395 11.7331 11.2 11.9721 11.2 12.2665C11.2 12.5609 11.4395 12.7998 11.7333 12.7998Z" fill="#00B2FF"/>
<path d="M12.8 14.9331C13.4944 14.9331 14.0811 15.3805 14.3019 15.9997H20.5792L23.6229 12.9561C23.7227 12.8558 23.8587 12.7998 24 12.7998H29.6459L30.9333 11.5123V7.15402L26.8187 3.03942C26.6101 3.13968 26.3797 3.19995 26.1333 3.19995C25.2512 3.19995 24.5333 2.48209 24.5333 1.59997C24.5333 0.717855 25.2512 0 26.1333 0C27.0155 0 27.7333 0.717855 27.7333 1.59997C27.7333 1.84637 27.6731 2.07677 27.5728 2.2853L31.8437 6.55616C31.944 6.65589 32 6.79136 32 6.93322V11.7331C32 11.875 31.944 12.0105 31.8437 12.1102L30.2437 13.7102C30.144 13.8104 30.008 13.8664 29.8667 13.8664H24.2208L21.1771 16.9101C21.0773 17.0104 20.9413 17.0664 20.8 17.0664H14.3019C14.0811 17.6856 13.4944 18.133 12.8 18.133C11.9179 18.133 11.2 17.4152 11.2 16.5331C11.2 15.6509 11.9179 14.9331 12.8 14.9331ZM26.1333 1.06665C25.8395 1.06665 25.6 1.30558 25.6 1.59997C25.6 1.89437 25.8395 2.1333 26.1333 2.1333C26.4272 2.1333 26.6667 1.89437 26.6667 1.59997C26.6667 1.30558 26.4272 1.06665 26.1333 1.06665ZM12.8 17.0664C13.0939 17.0664 13.3333 16.8275 13.3333 16.5331C13.3333 16.2387 13.0939 15.9997 12.8 15.9997C12.5061 15.9997 12.2667 16.2387 12.2667 16.5331C12.2667 16.8275 12.5061 17.0664 12.8 17.0664Z" fill="#00B2FF"/>
<path d="M1.6 12.7998C1.8464 12.7998 2.0768 12.8601 2.28533 12.9603L4.26667 10.979V7.90174C3.64747 7.68095 3.2 7.09429 3.2 6.3999C3.2 5.51778 3.91787 4.79993 4.8 4.79993C5.68213 4.79993 6.4 5.51778 6.4 6.3999C6.4 7.09429 5.95253 7.68095 5.33333 7.90174V11.1998C5.33333 11.3417 5.27733 11.4772 5.17707 11.5769L3.03947 13.7144C3.13973 13.923 3.2 14.1534 3.2 14.3998C3.2 15.0942 2.75253 15.6808 2.13333 15.9016V16.3123L6.24373 20.4226C6.344 20.5223 6.4 20.6578 6.4 20.7997V21.4311C7.0192 21.6519 7.46667 22.2386 7.46667 22.933C7.46667 23.6274 7.0192 24.214 6.4 24.4348V25.6983C7.0192 25.919 7.46667 26.5057 7.46667 27.2001C7.46667 28.0822 6.7488 28.8001 5.86667 28.8001C4.98453 28.8001 4.26667 28.0822 4.26667 27.2001C4.26667 26.5057 4.71413 25.919 5.33333 25.6983V24.4348C4.71413 24.214 4.26667 23.6274 4.26667 22.933C4.26667 22.2386 4.71413 21.6519 5.33333 21.4311V21.0205L1.22293 16.9101C1.12267 16.8104 1.06667 16.6749 1.06667 16.5331V15.9016C0.447466 15.6808 -7.15256e-07 15.0942 -7.15256e-07 14.3998C-7.15256e-07 13.5177 0.717866 12.7998 1.6 12.7998ZM4.8 6.93323C5.09387 6.93323 5.33333 6.6943 5.33333 6.3999C5.33333 6.10551 5.09387 5.86658 4.8 5.86658C4.50613 5.86658 4.26667 6.10551 4.26667 6.3999C4.26667 6.6943 4.50613 6.93323 4.8 6.93323ZM5.86667 27.7329C6.16053 27.7329 6.4 27.494 6.4 27.1996C6.4 26.9052 6.16053 26.6662 5.86667 26.6662C5.5728 26.6662 5.33333 26.9052 5.33333 27.1996C5.33333 27.494 5.5728 27.7329 5.86667 27.7329ZM5.86667 23.4663C6.16053 23.4663 6.4 23.2274 6.4 22.933C6.4 22.6386 6.16053 22.3996 5.86667 22.3996C5.5728 22.3996 5.33333 22.6386 5.33333 22.933C5.33333 23.2274 5.5728 23.4663 5.86667 23.4663ZM1.6 14.9331C1.89387 14.9331 2.13333 14.6942 2.13333 14.3998C2.13333 14.1054 1.89387 13.8664 1.6 13.8664C1.30613 13.8664 1.06667 14.1054 1.06667 14.3998C1.06667 14.6942 1.30613 14.9331 1.6 14.9331Z" fill="#00B2FF"/>
</svg>
