<svg xmlns="http://www.w3.org/2000/svg"><path d="M31.264 27.893a3.132 3.132 0 0 0 .597-1.842v-4.108a.684.684 0 0 0-.684-.683h-3.055a2.564 2.564 0 0 0-2.561 2.561v2.23c0 .687.222 1.323.596 1.841a4.402 4.402 0 0 0-1.336.445 5.817 5.817 0 0 0-4.294-2.56l-.021-.005a4.02 4.02 0 0 0 1.03-2.69V17.5a.684.684 0 0 0-.684-.684H16.7a3.24 3.24 0 0 0-3.236 3.236v3.03a4.02 4.02 0 0 0 1.03 2.69l-.021.005a5.816 5.816 0 0 0-4.294 2.56c-.42-.22-.87-.369-1.337-.445a3.132 3.132 0 0 0 .597-1.84v-4.109a.684.684 0 0 0-.684-.683H5.7a2.564 2.564 0 0 0-2.56 2.561v2.23c0 .688.221 1.324.596 1.842A4.464 4.464 0 0 0 0 32.291v2.025c0 .378.306.684.684.684h33.632a.684.684 0 0 0 .684-.684v-2.025a4.464 4.464 0 0 0-3.736-4.398ZM4.506 23.821c0-.658.536-1.194 1.194-1.194h2.372v.832c0 .409-.332.74-.74.74H4.506v-.378Zm0 1.746h2.826c.26 0 .51-.048.74-.135v.62c0 .982-.8 1.782-1.783 1.782-.983 0-1.783-.8-1.783-1.783v-.484Zm2.224 3.634-.44.44-.442-.44h.882Zm2.468 2.363v2.069h-7.83V32.29a3.095 3.095 0 0 1 2.588-3.049l1.85 1.85a.684.684 0 0 0 .966 0l1.85-1.85c.327.053.642.158.934.312a5.784 5.784 0 0 0-.358 2.01Zm8.302-5.813a2.672 2.672 0 0 1-2.668-2.668v-.904h4.085c.453 0 .88-.115 1.252-.319v1.223a2.672 2.672 0 0 1-2.669 2.669Zm1.192 1.368L17.5 28.31l-1.192-1.191h2.384Zm-3.86-7.067a1.87 1.87 0 0 1 1.868-1.868h3.469v1.377c0 .69-.562 1.251-1.252 1.251H14.83v-.76Zm9.603 13.58H10.565v-1.366h4.451a.684.684 0 1 0 0-1.368h-4.4a4.455 4.455 0 0 1 3.8-3.738l2.6 2.6a.682.682 0 0 0 .967 0l2.601-2.6a4.451 4.451 0 0 1 3.85 4.404v2.069Zm2.493-9.81c0-.66.536-1.195 1.194-1.195h2.372v.832c0 .409-.332.74-.74.74h-2.826v-.378Zm0 1.745h2.825c.26 0 .51-.048.74-.135v.62c0 .982-.799 1.782-1.782 1.782s-1.783-.8-1.783-1.783v-.484Zm2.224 3.634-.441.44-.44-.44h.88Zm-3.35 4.432v-2.069c0-.706-.127-1.383-.358-2.01.292-.154.606-.26.933-.312l1.85 1.85a.684.684 0 0 0 .967 0l1.85-1.85a3.095 3.095 0 0 1 2.589 3.05v1.34h-7.831ZM20.869 4.466a.684.684 0 0 0-.967 0l-3.354 3.355-1.45-1.45a.684.684 0 1 0-.967.967l1.933 1.933a.684.684 0 0 0 .967 0l3.838-3.838a.684.684 0 0 0 0-.966Z"/><path d="M20.296.593a.684.684 0 0 0-.557 1.248 5.51 5.51 0 0 1 3.263 5.028A5.508 5.508 0 0 1 17.5 12.37 5.508 5.508 0 0 1 12 6.87a5.515 5.515 0 0 1 3.24-5.017.683.683 0 1 0-.563-1.246 6.885 6.885 0 0 0-4.044 6.263 6.876 6.876 0 0 0 6.868 6.868 6.876 6.876 0 0 0 6.87-6.868A6.88 6.88 0 0 0 20.294.593Z"/><path d="M17.525 0h-.024a.684.684 0 0 0 0 1.367H17.522A.683.683 0 0 0 17.525 0ZM17.984 31.099a.689.689 0 0 0-.483-.2.689.689 0 0 0-.483.2.689.689 0 0 0-.2.483c0 .18.072.356.2.483.127.128.303.2.483.2a.688.688 0 0 0 .684-.683.689.689 0 0 0-.2-.483Z"/></svg>
