<svg viewBox="0 0 35 35" xmlns="http://www.w3.org/2000/svg"><path d="M17.5 11.017c-.377 0-.684.358-.684.8 0 .44.307.8.684.8.377 0 .684-.36.684-.8 0-.442-.307-.8-.684-.8Z"/><path d="M32.95 15.814h-2.66C28.886 11.132 26.852 2.922 23.166.598c-1.843-1.16-3.586-.35-4.24 1.297-.28.7-.836 1.068-1.427 1.068-.599 0-1.15-.376-1.426-1.067C15.442.305 13.74-.58 11.962.429 8.218 2.556 6.124 11.096 4.711 15.814H2.05C.918 15.814 0 16.887 0 18.212c0 1.322.92 2.398 2.05 2.398h30.9c1.132 0 2.05-1.073 2.05-2.398 0-1.322-.92-2.398-2.05-2.398ZM7.111 12.616h7.654c.377 0 .683-.358.683-.8 0-.44-.306-.799-.683-.799H7.59c2.06-6.656 3.986-8.59 4.97-9.15 1.073-.608 1.956-.099 2.274.703.502 1.26 1.54 1.992 2.666 1.992 1.13 0 2.166-.735 2.666-1.992.327-.824 1.215-1.28 2.352-.565.989.624 2.908 2.622 4.892 9.012h-7.176c-.377 0-.683.358-.683.8 0 .441.306.8.683.8h7.654c.346 1.165.705 2.367.953 3.197H6.159c.248-.828.606-2.027.953-3.198Zm25.837 6.396H2.051c-.377 0-.684-.36-.684-.8 0-.441.306-.8.684-.8h30.898c.377 0 .684.36.684.8 0 .441-.306.8-.684.8ZM16.133 23.808H5.195c-.377 0-.683.358-.683.8v3.197c0 3.967 2.76 7.195 6.152 7.195 2.57 0 4.846-1.849 5.75-4.634a2.28 2.28 0 0 1 2.171 0C19.49 33.15 21.765 35 24.335 35c3.393 0 6.153-3.228 6.153-7.195v-3.198c0-.441-.306-.8-.683-.8H18.867c-.377 0-.683.359-.683.8v.8h-1.368v-.8c0-.441-.306-.799-.683-.799Zm-5.469 9.593c-2.638 0-4.785-2.51-4.785-5.596v-2.398h9.57v2.398c0 3.094-2.135 5.596-4.785 5.596Zm8.887-7.994h9.57v2.398c0 3.086-2.147 5.596-4.785 5.596-2.657 0-4.785-2.51-4.785-5.596v-2.398Zm-1.367 1.599v.8c0 .255.012.51.035.762a3.432 3.432 0 0 0-1.438 0 8.52 8.52 0 0 0 .035-.763v-.8h1.368Z"/><path d="M10.664 30.203c-1.13 0-2.05-1.076-2.05-2.398 0-.442-.307-.8-.684-.8-.378 0-.684.358-.684.8 0 2.204 1.533 3.997 3.418 3.997.378 0 .684-.358.684-.8 0-.44-.306-.799-.684-.799ZM24.336 31.802c1.885 0 3.418-1.793 3.418-3.997 0-.442-.306-.8-.684-.8-.377 0-.683.358-.683.8 0 1.322-.92 2.398-2.051 2.398-.378 0-.684.358-.684.8 0 .441.306.8.684.8Z"/></svg>
