<svg xmlns="http://www.w3.org/2000/svg">
<path d="M33.917 14.666c1.193 0 2.201.77 2.581 1.834h9.504a2.746 2.746 0 0 1 2.581-1.834 2.753 2.753 0 0 1 2.75 2.75 2.753 2.753 0 0 1-2.75 2.75 2.746 2.746 0 0 1-2.581-1.833h-9.505a2.746 2.746 0 0 1-2.581 1.833 2.753 2.753 0 0 1-2.75-2.75 2.754 2.754 0 0 1 2.75-2.75Zm14.666 3.667a.918.918 0 0 0 0-1.833.918.918 0 0 0 0 1.833Zm-14.666 0a.918.918 0 0 0 0-1.833.918.918 0 0 0 0 1.833Z"/><path d="M26.583 20.335v-5.669c0-.243.097-.476.269-.648l3.667-3.666a.914.914 0 0 1 .648-.269h2.918a2.746 2.746 0 0 1 2.582-1.833 2.753 2.753 0 0 1 2.75 2.75 2.753 2.753 0 0 1-2.75 2.75 2.746 2.746 0 0 1-2.582-1.834h-2.539l-3.13 3.13v5.289a2.746 2.746 0 0 1 1.834 2.581 2.753 2.753 0 0 1-2.75 2.75 2.753 2.753 0 0 1-2.75-2.75c0-1.193.77-2.201 1.833-2.581Zm10.084-8.419a.918.918 0 0 0 0-1.833.918.918 0 0 0 0 1.833ZM27.5 23.834a.918.918 0 0 0 0-1.833.918.918 0 0 0 0 1.833ZM10.083 23.833c.424 0 .82.104 1.178.276l1.572-1.572V13.75c0-.244.097-.477.269-.648l9.174-9.174A2.705 2.705 0 0 1 22 2.75 2.753 2.753 0 0 1 24.75 0a2.753 2.753 0 0 1 2.75 2.75 2.753 2.753 0 0 1-2.75 2.75c-.424 0-.82-.104-1.178-.276l-8.905 8.905v8.787a.913.913 0 0 1-.269.648l-1.84 1.841c.172.358.275.754.275 1.178a2.753 2.753 0 0 1-2.75 2.75 2.753 2.753 0 0 1-2.75-2.75 2.753 2.753 0 0 1 2.75-2.75ZM24.75 3.667a.918.918 0 0 0 0-1.834.918.918 0 0 0 0 1.834ZM10.083 27.5a.918.918 0 0 0 0-1.834.918.918 0 0 0 0 1.834ZM1.833 13.002V9.167c0-.244.097-.477.269-.649l6.417-6.416a.914.914 0 0 1 .648-.269h4.752A2.746 2.746 0 0 1 16.5 0a2.753 2.753 0 0 1 2.75 2.75A2.753 2.753 0 0 1 16.5 5.5a2.746 2.746 0 0 1-2.581-1.833H9.546l-5.88 5.879v3.456A2.746 2.746 0 0 1 5.5 15.583a2.753 2.753 0 0 1-2.75 2.75A2.753 2.753 0 0 1 0 15.583c0-1.193.77-2.202 1.833-2.581ZM16.5 3.667a.918.918 0 0 0 0-1.834.918.918 0 0 0 0 1.834ZM2.75 16.5a.918.918 0 0 0 0-1.834.918.918 0 0 0 0 1.834ZM14.666 49.669V36.497a2.747 2.747 0 0 1-1.833-2.58 2.753 2.753 0 0 1 2.75-2.75c1.194 0 2.202.768 2.582 1.832h9.504a2.746 2.746 0 0 1 2.581-1.833c1.194 0 2.202.77 2.581 1.833h5.29l3.405-3.405a2.705 2.705 0 0 1-.276-1.178 2.753 2.753 0 0 1 2.75-2.75 2.753 2.753 0 0 1 2.75 2.75 2.753 2.753 0 0 1-2.75 2.75c-.423 0-.82-.103-1.178-.276l-3.674 3.674a.914.914 0 0 1-.648.269h-5.669a2.746 2.746 0 0 1-2.581 1.833 2.746 2.746 0 0 1-2.581-1.833h-9.505a2.747 2.747 0 0 1-1.665 1.664V49.67a2.746 2.746 0 0 1 1.833 2.581 2.753 2.753 0 0 1-2.75 2.75 2.753 2.753 0 0 1-2.75-2.75c0-1.193.77-2.202 1.834-2.581ZM44 29.333a.918.918 0 0 0 0-1.833.917.917 0 0 0 0 1.833Zm-13.75 5.5a.918.918 0 0 0 0-1.834.917.917 0 0 0 0 1.834ZM15.583 53.166a.918.918 0 0 0 0-1.833.918.918 0 0 0 0 1.833Zm0-18.333a.918.918 0 0 0 0-1.834.918.918 0 0 0 0 1.834Z"/><path d="M19.25 18.502v-2.919c0-.244.096-.477.269-.648L30.526 3.928a2.705 2.705 0 0 1-.276-1.178A2.753 2.753 0 0 1 33 0c1.194 0 2.202.77 2.581 1.833h3.836c.506 0 .916.41.916.917v2.37l3.406 3.406a2.705 2.705 0 0 1 1.178-.276 2.753 2.753 0 0 1 2.75 2.75 2.753 2.753 0 0 1-2.75 2.75 2.753 2.753 0 0 1-2.75-2.75c0-.424.103-.82.276-1.178l-3.674-3.674A.913.913 0 0 1 38.5 5.5V3.667h-2.919A2.746 2.746 0 0 1 33 5.5c-.423 0-.82-.104-1.178-.276L21.083 15.963v2.539a2.746 2.746 0 0 1 1.834 2.581 2.753 2.753 0 0 1-2.75 2.75 2.753 2.753 0 0 1-2.75-2.75c0-1.193.769-2.202 1.833-2.581Zm25.667-6.585a.918.918 0 0 0 0-1.834.918.918 0 0 0 0 1.833ZM33 3.666a.918.918 0 0 0 0-1.834.918.918 0 0 0 0 1.834ZM20.167 22a.917.917 0 1 0-.002-1.835.917.917 0 0 0 .002 1.835Z"/><path d="M22 25.666c1.194 0 2.202.77 2.581 1.834h10.79l5.23-5.232A.914.914 0 0 1 41.25 22h9.704l2.213-2.213v-7.491l-7.072-7.072a2.705 2.705 0 0 1-1.178.276 2.753 2.753 0 0 1-2.75-2.75A2.753 2.753 0 0 1 44.917 0a2.753 2.753 0 0 1 2.75 2.75c0 .423-.104.82-.276 1.178l7.34 7.34a.913.913 0 0 1 .269.648v8.25a.913.913 0 0 1-.269.648l-2.75 2.75a.914.914 0 0 1-.648.269H41.63l-5.232 5.231a.914.914 0 0 1-.648.269H24.581A2.746 2.746 0 0 1 22 31.166a2.753 2.753 0 0 1-2.75-2.75 2.753 2.753 0 0 1 2.75-2.75ZM44.917 1.833a.918.918 0 0 0 0 1.834.918.918 0 0 0 0-1.834ZM22 29.333a.918.918 0 0 0 0-1.833.918.918 0 0 0 0 1.833ZM2.75 22c.424 0 .82.103 1.178.276l3.405-3.406v-5.289A2.746 2.746 0 0 1 5.5 11a2.753 2.753 0 0 1 2.75-2.75A2.753 2.753 0 0 1 11 11c0 1.193-.77 2.202-1.833 2.581v5.669a.913.913 0 0 1-.269.648l-3.674 3.674c.172.358.276.754.276 1.178 0 1.193-.77 2.201-1.833 2.58v.707L10.73 35.1a.912.912 0 0 1 .269.648v1.086a2.746 2.746 0 0 1 1.833 2.581A2.746 2.746 0 0 1 11 41.997v2.172a2.746 2.746 0 0 1 1.833 2.581 2.753 2.753 0 0 1-2.75 2.75 2.753 2.753 0 0 1-2.75-2.75c0-1.193.77-2.202 1.834-2.581v-2.172a2.746 2.746 0 0 1-1.834-2.581c0-1.194.77-2.202 1.834-2.581v-.706l-7.065-7.065a.913.913 0 0 1-.269-.648v-1.085A2.746 2.746 0 0 1 0 24.75 2.753 2.753 0 0 1 2.75 22Zm5.5-10.084a.918.918 0 0 0 0-1.833.918.918 0 0 0 0 1.833Zm1.833 35.75a.918.918 0 0 0 0-1.833.918.918 0 0 0 0 1.833Zm0-7.333a.918.918 0 0 0 0-1.834.918.918 0 0 0 0 1.834ZM2.75 25.666a.918.918 0 0 0 0-1.833.918.918 0 0 0 0 1.833Z"/></svg>
