<svg width="30" height="30" xmlns="http://www.w3.org/2000/svg"><path fill-rule="evenodd" clip-rule="evenodd" d="M30 15.0001C30 6.71625 23.2847 0 14.9999 0 6.71532 0 0 6.71625 0 15.0001 0 23.2847 6.71522 30 14.9999 30 23.2847 30 30 23.2848 30 15.0001ZM5 15C5 9.4823 9.4823 5 15 5s10 4.4823 10 10-4.4823 10-10 10S5 20.5177 5 15Zm19.1304 0c0-5.04775-4.0826-9.13043-9.1304-9.13043-5.04775 0-9.13043 4.08268-9.13043 9.13043 0 3.8345 2.35701 7.1098 5.70223 8.4638-.0701-.7306-.1157-1.7119.0544-2.4405.1697-.7292 1.0963-4.6468 1.0963-4.6468s-.2802-.5603-.2802-1.3875c0-1.3001.7535-2.2699 1.6915-2.2699.7978 0 1.1829.5986 1.1829 1.3162 0 .513-.2085 1.188-.4279 1.8985-.1239.4009-.2512.813-.3465 1.2138-.2204.9308.4666 1.6899 1.3842 1.6899 1.6614 0 2.9381-1.7522 2.9381-4.2808 0-2.2381-1.6082-3.8035-3.9045-3.8035-2.6595 0-4.2205 1.9955-4.2205 4.0574 0 .8032.3099 1.6644.6964 2.1332.0762.0927.0872.1741.0645.2683-.0431.1795-.1183.4845-.1777.7253-.0382.1551-.0699.2835-.0821.3345-.0407.1715-.1357.2072-.3125.1248-1.1678-.5436-1.89712-2.2505-1.89712-3.6217 0-2.9486 2.14142-5.65645 6.17612-5.65645 3.243 0 5.7634 2.31035 5.7634 5.39915 0 3.2217-2.0323 5.8143-4.8514 5.8143-.9473 0-1.8371-.492-2.1416-1.0733 0 0-.4686 1.7847-.5826 2.2223-.1918.738-.6747 1.6318-1.0487 2.2571.8397.2541 1.7304.3923 2.6537.3923 5.0478 0 9.1304-4.0826 9.1304-9.1304Z"/></svg>
